<svg width="18" height="18" viewBox="0 0 18 18" fill="none" xmlns="http://www.w3.org/2000/svg">
<path d="M8.25 4.5C10.531 4.55876 12.7604 3.81563 14.55 2.4C14.7773 2.22956 15.0813 2.20214 15.3354 2.32918C15.5895 2.45623 15.75 2.71593 15.75 3V12C15.75 12.2841 15.5895 12.5438 15.3354 12.6708C15.0813 12.7979 14.7773 12.7705 14.55 12.6C12.7604 11.1844 10.531 10.4412 8.25 10.5H3.75C2.92213 10.5 2.25 9.82788 2.25 9V6C2.25 5.17213 2.92213 4.5 3.75 4.5H8.25" stroke="#7C3AED" stroke-width="1.5" stroke-linecap="round" stroke-linejoin="round"/>
<path d="M4.5 10.5C4.5 12.4473 5.1316 14.3421 6.3 15.9C6.79706 16.5627 7.73726 16.6971 8.4 16.2C9.06274 15.7029 9.19706 14.7627 8.7 14.1C7.92107 13.0614 7.5 11.7982 7.5 10.5M6 4.5V10.5" stroke="#7C3AED" stroke-width="1.5" stroke-linecap="round" stroke-linejoin="round"/>
</svg>
